<?xml version="1.0" encoding="utf-8" standalone="no"?>
<!DOCTYPE svg PUBLIC "-//W3C//DTD SVG 1.1//EN"
  "http://www.w3.org/Graphics/SVG/1.1/DTD/svg11.dtd">
<svg xmlns:xlink="http://www.w3.org/1999/xlink" width="591.86375pt" height="377.39625pt" viewBox="0 0 591.86375 377.39625" xmlns="http://www.w3.org/2000/svg" version="1.1">
 <metadata>
  <rdf:RDF xmlns:dc="http://purl.org/dc/elements/1.1/" xmlns:cc="http://creativecommons.org/ns#" xmlns:rdf="http://www.w3.org/1999/02/22-rdf-syntax-ns#">
   <cc:Work>
    <dc:type rdf:resource="http://purl.org/dc/dcmitype/StillImage"/>
    <dc:date>2023-06-01T23:40:13.333115</dc:date>
    <dc:format>image/svg+xml</dc:format>
    <dc:creator>
     <cc:Agent>
      <dc:title>Matplotlib v3.7.1, https://matplotlib.org/</dc:title>
     </cc:Agent>
    </dc:creator>
   </cc:Work>
  </rdf:RDF>
 </metadata>
 <defs>
  <style type="text/css">*{stroke-linejoin: round; stroke-linecap: butt}</style>
 </defs>
 <g id="figure_1">
  <g id="patch_1">
   <path d="M 0 377.39625 
L 591.86375 377.39625 
L 591.86375 0 
L 0 0 
L 0 377.39625 
z
" style="fill: none"/>
  </g>
  <g id="axes_1">
   <g id="patch_2">
    <path d="M 43.78125 339.84 
L 400.90125 339.84 
L 400.90125 7.2 
L 43.78125 7.2 
L 43.78125 339.84 
z
" style="fill: none"/>
   </g>
   <g id="matplotlib.axis_1">
    <g id="xtick_1">
     <g id="line2d_1">
      <path d="M 60.013977 339.84 
L 60.013977 7.2 
" clip-path="url(#pe6796a2314)" style="fill: none; stroke: #b0b0b0; stroke-width: 0.8; stroke-linecap: square"/>
     </g>
     <g id="line2d_2">
      <defs>
       <path id="m53aaec333d" d="M 0 0 
L 0 3.5 
" style="stroke: #000000; stroke-width: 0.8"/>
      </defs>
      <g>
       <use xlink:href="#m53aaec333d" x="60.013977" y="339.84" style="stroke: #000000; stroke-width: 0.8"/>
      </g>
     </g>
     <g id="text_1">
      <!-- 2 -->
      <g transform="translate(56.832727 354.438438) scale(0.1 -0.1)">
       <defs>
        <path id="DejaVuSans-32" d="M 1228 531 
L 3431 531 
L 3431 0 
L 469 0 
L 469 531 
Q 828 903 1448 1529 
Q 2069 2156 2228 2338 
Q 2531 2678 2651 2914 
Q 2772 3150 2772 3378 
Q 2772 3750 2511 3984 
Q 2250 4219 1831 4219 
Q 1534 4219 1204 4116 
Q 875 4013 500 3803 
L 500 4441 
Q 881 4594 1212 4672 
Q 1544 4750 1819 4750 
Q 2544 4750 2975 4387 
Q 3406 4025 3406 3419 
Q 3406 3131 3298 2873 
Q 3191 2616 2906 2266 
Q 2828 2175 2409 1742 
Q 1991 1309 1228 531 
z
" transform="scale(0.015625)"/>
       </defs>
       <use xlink:href="#DejaVuSans-32"/>
      </g>
     </g>
    </g>
    <g id="xtick_2">
     <g id="line2d_3">
      <path d="M 168.232159 339.84 
L 168.232159 7.2 
" clip-path="url(#pe6796a2314)" style="fill: none; stroke: #b0b0b0; stroke-width: 0.8; stroke-linecap: square"/>
     </g>
     <g id="line2d_4">
      <g>
       <use xlink:href="#m53aaec333d" x="168.232159" y="339.84" style="stroke: #000000; stroke-width: 0.8"/>
      </g>
     </g>
     <g id="text_2">
      <!-- 3 -->
      <g transform="translate(165.050909 354.438438) scale(0.1 -0.1)">
       <defs>
        <path id="DejaVuSans-33" d="M 2597 2516 
Q 3050 2419 3304 2112 
Q 3559 1806 3559 1356 
Q 3559 666 3084 287 
Q 2609 -91 1734 -91 
Q 1441 -91 1130 -33 
Q 819 25 488 141 
L 488 750 
Q 750 597 1062 519 
Q 1375 441 1716 441 
Q 2309 441 2620 675 
Q 2931 909 2931 1356 
Q 2931 1769 2642 2001 
Q 2353 2234 1838 2234 
L 1294 2234 
L 1294 2753 
L 1863 2753 
Q 2328 2753 2575 2939 
Q 2822 3125 2822 3475 
Q 2822 3834 2567 4026 
Q 2313 4219 1838 4219 
Q 1578 4219 1281 4162 
Q 984 4106 628 3988 
L 628 4550 
Q 988 4650 1302 4700 
Q 1616 4750 1894 4750 
Q 2613 4750 3031 4423 
Q 3450 4097 3450 3541 
Q 3450 3153 3228 2886 
Q 3006 2619 2597 2516 
z
" transform="scale(0.015625)"/>
       </defs>
       <use xlink:href="#DejaVuSans-33"/>
      </g>
     </g>
    </g>
    <g id="xtick_3">
     <g id="line2d_5">
      <path d="M 276.450341 339.84 
L 276.450341 7.2 
" clip-path="url(#pe6796a2314)" style="fill: none; stroke: #b0b0b0; stroke-width: 0.8; stroke-linecap: square"/>
     </g>
     <g id="line2d_6">
      <g>
       <use xlink:href="#m53aaec333d" x="276.450341" y="339.84" style="stroke: #000000; stroke-width: 0.8"/>
      </g>
     </g>
     <g id="text_3">
      <!-- 4 -->
      <g transform="translate(273.269091 354.438438) scale(0.1 -0.1)">
       <defs>
        <path id="DejaVuSans-34" d="M 2419 4116 
L 825 1625 
L 2419 1625 
L 2419 4116 
z
M 2253 4666 
L 3047 4666 
L 3047 1625 
L 3713 1625 
L 3713 1100 
L 3047 1100 
L 3047 0 
L 2419 0 
L 2419 1100 
L 313 1100 
L 313 1709 
L 2253 4666 
z
" transform="scale(0.015625)"/>
       </defs>
       <use xlink:href="#DejaVuSans-34"/>
      </g>
     </g>
    </g>
    <g id="xtick_4">
     <g id="line2d_7">
      <path d="M 384.668523 339.84 
L 384.668523 7.2 
" clip-path="url(#pe6796a2314)" style="fill: none; stroke: #b0b0b0; stroke-width: 0.8; stroke-linecap: square"/>
     </g>
     <g id="line2d_8">
      <g>
       <use xlink:href="#m53aaec333d" x="384.668523" y="339.84" style="stroke: #000000; stroke-width: 0.8"/>
      </g>
     </g>
     <g id="text_4">
      <!-- 5 -->
      <g transform="translate(381.487273 354.438438) scale(0.1 -0.1)">
       <defs>
        <path id="DejaVuSans-35" d="M 691 4666 
L 3169 4666 
L 3169 4134 
L 1269 4134 
L 1269 2991 
Q 1406 3038 1543 3061 
Q 1681 3084 1819 3084 
Q 2600 3084 3056 2656 
Q 3513 2228 3513 1497 
Q 3513 744 3044 326 
Q 2575 -91 1722 -91 
Q 1428 -91 1123 -41 
Q 819 9 494 109 
L 494 744 
Q 775 591 1075 516 
Q 1375 441 1709 441 
Q 2250 441 2565 725 
Q 2881 1009 2881 1497 
Q 2881 1984 2565 2268 
Q 2250 2553 1709 2553 
Q 1456 2553 1204 2497 
Q 953 2441 691 2322 
L 691 4666 
z
" transform="scale(0.015625)"/>
       </defs>
       <use xlink:href="#DejaVuSans-35"/>
      </g>
     </g>
    </g>
    <g id="text_5">
     <!-- Number of classes -->
     <g transform="translate(176.164688 368.116562) scale(0.1 -0.1)">
      <defs>
       <path id="DejaVuSans-4e" d="M 628 4666 
L 1478 4666 
L 3547 763 
L 3547 4666 
L 4159 4666 
L 4159 0 
L 3309 0 
L 1241 3903 
L 1241 0 
L 628 0 
L 628 4666 
z
" transform="scale(0.015625)"/>
       <path id="DejaVuSans-75" d="M 544 1381 
L 544 3500 
L 1119 3500 
L 1119 1403 
Q 1119 906 1312 657 
Q 1506 409 1894 409 
Q 2359 409 2629 706 
Q 2900 1003 2900 1516 
L 2900 3500 
L 3475 3500 
L 3475 0 
L 2900 0 
L 2900 538 
Q 2691 219 2414 64 
Q 2138 -91 1772 -91 
Q 1169 -91 856 284 
Q 544 659 544 1381 
z
M 1991 3584 
L 1991 3584 
z
" transform="scale(0.015625)"/>
       <path id="DejaVuSans-6d" d="M 3328 2828 
Q 3544 3216 3844 3400 
Q 4144 3584 4550 3584 
Q 5097 3584 5394 3201 
Q 5691 2819 5691 2113 
L 5691 0 
L 5113 0 
L 5113 2094 
Q 5113 2597 4934 2840 
Q 4756 3084 4391 3084 
Q 3944 3084 3684 2787 
Q 3425 2491 3425 1978 
L 3425 0 
L 2847 0 
L 2847 2094 
Q 2847 2600 2669 2842 
Q 2491 3084 2119 3084 
Q 1678 3084 1418 2786 
Q 1159 2488 1159 1978 
L 1159 0 
L 581 0 
L 581 3500 
L 1159 3500 
L 1159 2956 
Q 1356 3278 1631 3431 
Q 1906 3584 2284 3584 
Q 2666 3584 2933 3390 
Q 3200 3197 3328 2828 
z
" transform="scale(0.015625)"/>
       <path id="DejaVuSans-62" d="M 3116 1747 
Q 3116 2381 2855 2742 
Q 2594 3103 2138 3103 
Q 1681 3103 1420 2742 
Q 1159 2381 1159 1747 
Q 1159 1113 1420 752 
Q 1681 391 2138 391 
Q 2594 391 2855 752 
Q 3116 1113 3116 1747 
z
M 1159 2969 
Q 1341 3281 1617 3432 
Q 1894 3584 2278 3584 
Q 2916 3584 3314 3078 
Q 3713 2572 3713 1747 
Q 3713 922 3314 415 
Q 2916 -91 2278 -91 
Q 1894 -91 1617 61 
Q 1341 213 1159 525 
L 1159 0 
L 581 0 
L 581 4863 
L 1159 4863 
L 1159 2969 
z
" transform="scale(0.015625)"/>
       <path id="DejaVuSans-65" d="M 3597 1894 
L 3597 1613 
L 953 1613 
Q 991 1019 1311 708 
Q 1631 397 2203 397 
Q 2534 397 2845 478 
Q 3156 559 3463 722 
L 3463 178 
Q 3153 47 2828 -22 
Q 2503 -91 2169 -91 
Q 1331 -91 842 396 
Q 353 884 353 1716 
Q 353 2575 817 3079 
Q 1281 3584 2069 3584 
Q 2775 3584 3186 3129 
Q 3597 2675 3597 1894 
z
M 3022 2063 
Q 3016 2534 2758 2815 
Q 2500 3097 2075 3097 
Q 1594 3097 1305 2825 
Q 1016 2553 972 2059 
L 3022 2063 
z
" transform="scale(0.015625)"/>
       <path id="DejaVuSans-72" d="M 2631 2963 
Q 2534 3019 2420 3045 
Q 2306 3072 2169 3072 
Q 1681 3072 1420 2755 
Q 1159 2438 1159 1844 
L 1159 0 
L 581 0 
L 581 3500 
L 1159 3500 
L 1159 2956 
Q 1341 3275 1631 3429 
Q 1922 3584 2338 3584 
Q 2397 3584 2469 3576 
Q 2541 3569 2628 3553 
L 2631 2963 
z
" transform="scale(0.015625)"/>
       <path id="DejaVuSans-20" transform="scale(0.015625)"/>
       <path id="DejaVuSans-6f" d="M 1959 3097 
Q 1497 3097 1228 2736 
Q 959 2375 959 1747 
Q 959 1119 1226 758 
Q 1494 397 1959 397 
Q 2419 397 2687 759 
Q 2956 1122 2956 1747 
Q 2956 2369 2687 2733 
Q 2419 3097 1959 3097 
z
M 1959 3584 
Q 2709 3584 3137 3096 
Q 3566 2609 3566 1747 
Q 3566 888 3137 398 
Q 2709 -91 1959 -91 
Q 1206 -91 779 398 
Q 353 888 353 1747 
Q 353 2609 779 3096 
Q 1206 3584 1959 3584 
z
" transform="scale(0.015625)"/>
       <path id="DejaVuSans-66" d="M 2375 4863 
L 2375 4384 
L 1825 4384 
Q 1516 4384 1395 4259 
Q 1275 4134 1275 3809 
L 1275 3500 
L 2222 3500 
L 2222 3053 
L 1275 3053 
L 1275 0 
L 697 0 
L 697 3053 
L 147 3053 
L 147 3500 
L 697 3500 
L 697 3744 
Q 697 4328 969 4595 
Q 1241 4863 1831 4863 
L 2375 4863 
z
" transform="scale(0.015625)"/>
       <path id="DejaVuSans-63" d="M 3122 3366 
L 3122 2828 
Q 2878 2963 2633 3030 
Q 2388 3097 2138 3097 
Q 1578 3097 1268 2742 
Q 959 2388 959 1747 
Q 959 1106 1268 751 
Q 1578 397 2138 397 
Q 2388 397 2633 464 
Q 2878 531 3122 666 
L 3122 134 
Q 2881 22 2623 -34 
Q 2366 -91 2075 -91 
Q 1284 -91 818 406 
Q 353 903 353 1747 
Q 353 2603 823 3093 
Q 1294 3584 2113 3584 
Q 2378 3584 2631 3529 
Q 2884 3475 3122 3366 
z
" transform="scale(0.015625)"/>
       <path id="DejaVuSans-6c" d="M 603 4863 
L 1178 4863 
L 1178 0 
L 603 0 
L 603 4863 
z
" transform="scale(0.015625)"/>
       <path id="DejaVuSans-61" d="M 2194 1759 
Q 1497 1759 1228 1600 
Q 959 1441 959 1056 
Q 959 750 1161 570 
Q 1363 391 1709 391 
Q 2188 391 2477 730 
Q 2766 1069 2766 1631 
L 2766 1759 
L 2194 1759 
z
M 3341 1997 
L 3341 0 
L 2766 0 
L 2766 531 
Q 2569 213 2275 61 
Q 1981 -91 1556 -91 
Q 1019 -91 701 211 
Q 384 513 384 1019 
Q 384 1609 779 1909 
Q 1175 2209 1959 2209 
L 2766 2209 
L 2766 2266 
Q 2766 2663 2505 2880 
Q 2244 3097 1772 3097 
Q 1472 3097 1187 3025 
Q 903 2953 641 2809 
L 641 3341 
Q 956 3463 1253 3523 
Q 1550 3584 1831 3584 
Q 2591 3584 2966 3190 
Q 3341 2797 3341 1997 
z
" transform="scale(0.015625)"/>
       <path id="DejaVuSans-73" d="M 2834 3397 
L 2834 2853 
Q 2591 2978 2328 3040 
Q 2066 3103 1784 3103 
Q 1356 3103 1142 2972 
Q 928 2841 928 2578 
Q 928 2378 1081 2264 
Q 1234 2150 1697 2047 
L 1894 2003 
Q 2506 1872 2764 1633 
Q 3022 1394 3022 966 
Q 3022 478 2636 193 
Q 2250 -91 1575 -91 
Q 1294 -91 989 -36 
Q 684 19 347 128 
L 347 722 
Q 666 556 975 473 
Q 1284 391 1588 391 
Q 1994 391 2212 530 
Q 2431 669 2431 922 
Q 2431 1156 2273 1281 
Q 2116 1406 1581 1522 
L 1381 1569 
Q 847 1681 609 1914 
Q 372 2147 372 2553 
Q 372 3047 722 3315 
Q 1072 3584 1716 3584 
Q 2034 3584 2315 3537 
Q 2597 3491 2834 3397 
z
" transform="scale(0.015625)"/>
      </defs>
      <use xlink:href="#DejaVuSans-4e"/>
      <use xlink:href="#DejaVuSans-75" x="74.804688"/>
      <use xlink:href="#DejaVuSans-6d" x="138.183594"/>
      <use xlink:href="#DejaVuSans-62" x="235.595703"/>
      <use xlink:href="#DejaVuSans-65" x="299.072266"/>
      <use xlink:href="#DejaVuSans-72" x="360.595703"/>
      <use xlink:href="#DejaVuSans-20" x="401.708984"/>
      <use xlink:href="#DejaVuSans-6f" x="433.496094"/>
      <use xlink:href="#DejaVuSans-66" x="494.677734"/>
      <use xlink:href="#DejaVuSans-20" x="529.882812"/>
      <use xlink:href="#DejaVuSans-63" x="561.669922"/>
      <use xlink:href="#DejaVuSans-6c" x="616.650391"/>
      <use xlink:href="#DejaVuSans-61" x="644.433594"/>
      <use xlink:href="#DejaVuSans-73" x="705.712891"/>
      <use xlink:href="#DejaVuSans-73" x="757.8125"/>
      <use xlink:href="#DejaVuSans-65" x="809.912109"/>
      <use xlink:href="#DejaVuSans-73" x="871.435547"/>
     </g>
    </g>
   </g>
   <g id="matplotlib.axis_2">
    <g id="ytick_1">
     <g id="line2d_9">
      <path d="M 43.78125 323.861913 
L 400.90125 323.861913 
" clip-path="url(#pe6796a2314)" style="fill: none; stroke: #b0b0b0; stroke-width: 0.8; stroke-linecap: square"/>
     </g>
     <g id="line2d_10">
      <defs>
       <path id="m23a41b03e8" d="M 0 0 
L -3.5 0 
" style="stroke: #000000; stroke-width: 0.8"/>
      </defs>
      <g>
       <use xlink:href="#m23a41b03e8" x="43.78125" y="323.861913" style="stroke: #000000; stroke-width: 0.8"/>
      </g>
     </g>
     <g id="text_6">
      <!-- 0.4 -->
      <g transform="translate(20.878125 327.661132) scale(0.1 -0.1)">
       <defs>
        <path id="DejaVuSans-30" d="M 2034 4250 
Q 1547 4250 1301 3770 
Q 1056 3291 1056 2328 
Q 1056 1369 1301 889 
Q 1547 409 2034 409 
Q 2525 409 2770 889 
Q 3016 1369 3016 2328 
Q 3016 3291 2770 3770 
Q 2525 4250 2034 4250 
z
M 2034 4750 
Q 2819 4750 3233 4129 
Q 3647 3509 3647 2328 
Q 3647 1150 3233 529 
Q 2819 -91 2034 -91 
Q 1250 -91 836 529 
Q 422 1150 422 2328 
Q 422 3509 836 4129 
Q 1250 4750 2034 4750 
z
" transform="scale(0.015625)"/>
        <path id="DejaVuSans-2e" d="M 684 794 
L 1344 794 
L 1344 0 
L 684 0 
L 684 794 
z
" transform="scale(0.015625)"/>
       </defs>
       <use xlink:href="#DejaVuSans-30"/>
       <use xlink:href="#DejaVuSans-2e" x="63.623047"/>
       <use xlink:href="#DejaVuSans-34" x="95.410156"/>
      </g>
     </g>
    </g>
    <g id="ytick_2">
     <g id="line2d_11">
      <path d="M 43.78125 266.612359 
L 400.90125 266.612359 
" clip-path="url(#pe6796a2314)" style="fill: none; stroke: #b0b0b0; stroke-width: 0.8; stroke-linecap: square"/>
     </g>
     <g id="line2d_12">
      <g>
       <use xlink:href="#m23a41b03e8" x="43.78125" y="266.612359" style="stroke: #000000; stroke-width: 0.8"/>
      </g>
     </g>
     <g id="text_7">
      <!-- 0.5 -->
      <g transform="translate(20.878125 270.411577) scale(0.1 -0.1)">
       <use xlink:href="#DejaVuSans-30"/>
       <use xlink:href="#DejaVuSans-2e" x="63.623047"/>
       <use xlink:href="#DejaVuSans-35" x="95.410156"/>
      </g>
     </g>
    </g>
    <g id="ytick_3">
     <g id="line2d_13">
      <path d="M 43.78125 209.362804 
L 400.90125 209.362804 
" clip-path="url(#pe6796a2314)" style="fill: none; stroke: #b0b0b0; stroke-width: 0.8; stroke-linecap: square"/>
     </g>
     <g id="line2d_14">
      <g>
       <use xlink:href="#m23a41b03e8" x="43.78125" y="209.362804" style="stroke: #000000; stroke-width: 0.8"/>
      </g>
     </g>
     <g id="text_8">
      <!-- 0.6 -->
      <g transform="translate(20.878125 213.162023) scale(0.1 -0.1)">
       <defs>
        <path id="DejaVuSans-36" d="M 2113 2584 
Q 1688 2584 1439 2293 
Q 1191 2003 1191 1497 
Q 1191 994 1439 701 
Q 1688 409 2113 409 
Q 2538 409 2786 701 
Q 3034 994 3034 1497 
Q 3034 2003 2786 2293 
Q 2538 2584 2113 2584 
z
M 3366 4563 
L 3366 3988 
Q 3128 4100 2886 4159 
Q 2644 4219 2406 4219 
Q 1781 4219 1451 3797 
Q 1122 3375 1075 2522 
Q 1259 2794 1537 2939 
Q 1816 3084 2150 3084 
Q 2853 3084 3261 2657 
Q 3669 2231 3669 1497 
Q 3669 778 3244 343 
Q 2819 -91 2113 -91 
Q 1303 -91 875 529 
Q 447 1150 447 2328 
Q 447 3434 972 4092 
Q 1497 4750 2381 4750 
Q 2619 4750 2861 4703 
Q 3103 4656 3366 4563 
z
" transform="scale(0.015625)"/>
       </defs>
       <use xlink:href="#DejaVuSans-30"/>
       <use xlink:href="#DejaVuSans-2e" x="63.623047"/>
       <use xlink:href="#DejaVuSans-36" x="95.410156"/>
      </g>
     </g>
    </g>
    <g id="ytick_4">
     <g id="line2d_15">
      <path d="M 43.78125 152.11325 
L 400.90125 152.11325 
" clip-path="url(#pe6796a2314)" style="fill: none; stroke: #b0b0b0; stroke-width: 0.8; stroke-linecap: square"/>
     </g>
     <g id="line2d_16">
      <g>
       <use xlink:href="#m23a41b03e8" x="43.78125" y="152.11325" style="stroke: #000000; stroke-width: 0.8"/>
      </g>
     </g>
     <g id="text_9">
      <!-- 0.7 -->
      <g transform="translate(20.878125 155.912469) scale(0.1 -0.1)">
       <defs>
        <path id="DejaVuSans-37" d="M 525 4666 
L 3525 4666 
L 3525 4397 
L 1831 0 
L 1172 0 
L 2766 4134 
L 525 4134 
L 525 4666 
z
" transform="scale(0.015625)"/>
       </defs>
       <use xlink:href="#DejaVuSans-30"/>
       <use xlink:href="#DejaVuSans-2e" x="63.623047"/>
       <use xlink:href="#DejaVuSans-37" x="95.410156"/>
      </g>
     </g>
    </g>
    <g id="ytick_5">
     <g id="line2d_17">
      <path d="M 43.78125 94.863696 
L 400.90125 94.863696 
" clip-path="url(#pe6796a2314)" style="fill: none; stroke: #b0b0b0; stroke-width: 0.8; stroke-linecap: square"/>
     </g>
     <g id="line2d_18">
      <g>
       <use xlink:href="#m23a41b03e8" x="43.78125" y="94.863696" style="stroke: #000000; stroke-width: 0.8"/>
      </g>
     </g>
     <g id="text_10">
      <!-- 0.8 -->
      <g transform="translate(20.878125 98.662914) scale(0.1 -0.1)">
       <defs>
        <path id="DejaVuSans-38" d="M 2034 2216 
Q 1584 2216 1326 1975 
Q 1069 1734 1069 1313 
Q 1069 891 1326 650 
Q 1584 409 2034 409 
Q 2484 409 2743 651 
Q 3003 894 3003 1313 
Q 3003 1734 2745 1975 
Q 2488 2216 2034 2216 
z
M 1403 2484 
Q 997 2584 770 2862 
Q 544 3141 544 3541 
Q 544 4100 942 4425 
Q 1341 4750 2034 4750 
Q 2731 4750 3128 4425 
Q 3525 4100 3525 3541 
Q 3525 3141 3298 2862 
Q 3072 2584 2669 2484 
Q 3125 2378 3379 2068 
Q 3634 1759 3634 1313 
Q 3634 634 3220 271 
Q 2806 -91 2034 -91 
Q 1263 -91 848 271 
Q 434 634 434 1313 
Q 434 1759 690 2068 
Q 947 2378 1403 2484 
z
M 1172 3481 
Q 1172 3119 1398 2916 
Q 1625 2713 2034 2713 
Q 2441 2713 2670 2916 
Q 2900 3119 2900 3481 
Q 2900 3844 2670 4047 
Q 2441 4250 2034 4250 
Q 1625 4250 1398 4047 
Q 1172 3844 1172 3481 
z
" transform="scale(0.015625)"/>
       </defs>
       <use xlink:href="#DejaVuSans-30"/>
       <use xlink:href="#DejaVuSans-2e" x="63.623047"/>
       <use xlink:href="#DejaVuSans-38" x="95.410156"/>
      </g>
     </g>
    </g>
    <g id="ytick_6">
     <g id="line2d_19">
      <path d="M 43.78125 37.614141 
L 400.90125 37.614141 
" clip-path="url(#pe6796a2314)" style="fill: none; stroke: #b0b0b0; stroke-width: 0.8; stroke-linecap: square"/>
     </g>
     <g id="line2d_20">
      <g>
       <use xlink:href="#m23a41b03e8" x="43.78125" y="37.614141" style="stroke: #000000; stroke-width: 0.8"/>
      </g>
     </g>
     <g id="text_11">
      <!-- 0.9 -->
      <g transform="translate(20.878125 41.41336) scale(0.1 -0.1)">
       <defs>
        <path id="DejaVuSans-39" d="M 703 97 
L 703 672 
Q 941 559 1184 500 
Q 1428 441 1663 441 
Q 2288 441 2617 861 
Q 2947 1281 2994 2138 
Q 2813 1869 2534 1725 
Q 2256 1581 1919 1581 
Q 1219 1581 811 2004 
Q 403 2428 403 3163 
Q 403 3881 828 4315 
Q 1253 4750 1959 4750 
Q 2769 4750 3195 4129 
Q 3622 3509 3622 2328 
Q 3622 1225 3098 567 
Q 2575 -91 1691 -91 
Q 1453 -91 1209 -44 
Q 966 3 703 97 
z
M 1959 2075 
Q 2384 2075 2632 2365 
Q 2881 2656 2881 3163 
Q 2881 3666 2632 3958 
Q 2384 4250 1959 4250 
Q 1534 4250 1286 3958 
Q 1038 3666 1038 3163 
Q 1038 2656 1286 2365 
Q 1534 2075 1959 2075 
z
" transform="scale(0.015625)"/>
       </defs>
       <use xlink:href="#DejaVuSans-30"/>
       <use xlink:href="#DejaVuSans-2e" x="63.623047"/>
       <use xlink:href="#DejaVuSans-39" x="95.410156"/>
      </g>
     </g>
    </g>
    <g id="text_12">
     <!-- Accuracy -->
     <g transform="translate(14.798438 196.348125) rotate(-90) scale(0.1 -0.1)">
      <defs>
       <path id="DejaVuSans-41" d="M 2188 4044 
L 1331 1722 
L 3047 1722 
L 2188 4044 
z
M 1831 4666 
L 2547 4666 
L 4325 0 
L 3669 0 
L 3244 1197 
L 1141 1197 
L 716 0 
L 50 0 
L 1831 4666 
z
" transform="scale(0.015625)"/>
       <path id="DejaVuSans-79" d="M 2059 -325 
Q 1816 -950 1584 -1140 
Q 1353 -1331 966 -1331 
L 506 -1331 
L 506 -850 
L 844 -850 
Q 1081 -850 1212 -737 
Q 1344 -625 1503 -206 
L 1606 56 
L 191 3500 
L 800 3500 
L 1894 763 
L 2988 3500 
L 3597 3500 
L 2059 -325 
z
" transform="scale(0.015625)"/>
      </defs>
      <use xlink:href="#DejaVuSans-41"/>
      <use xlink:href="#DejaVuSans-63" x="66.658203"/>
      <use xlink:href="#DejaVuSans-63" x="121.638672"/>
      <use xlink:href="#DejaVuSans-75" x="176.619141"/>
      <use xlink:href="#DejaVuSans-72" x="239.998047"/>
      <use xlink:href="#DejaVuSans-61" x="281.111328"/>
      <use xlink:href="#DejaVuSans-63" x="342.390625"/>
      <use xlink:href="#DejaVuSans-79" x="397.371094"/>
     </g>
    </g>
   </g>
   <g id="line2d_21">
    <path d="M 60.013977 146.861778 
L 168.232159 142.749251 
L 276.450341 170.010524 
L 384.668523 187.423453 
" clip-path="url(#pe6796a2314)" style="fill: none; stroke-dasharray: 5.55,2.4; stroke-dashoffset: 0; stroke: #ff00ff; stroke-width: 1.5"/>
    <defs>
     <path id="md5b1f72c10" d="M 0 -3 
L -3 3 
L 3 3 
z
" style="stroke: #000000; stroke-linejoin: miter"/>
    </defs>
    <g clip-path="url(#pe6796a2314)">
     <use xlink:href="#md5b1f72c10" x="60.013977" y="146.861778" style="fill: #ff00ff; stroke: #000000; stroke-linejoin: miter"/>
     <use xlink:href="#md5b1f72c10" x="168.232159" y="142.749251" style="fill: #ff00ff; stroke: #000000; stroke-linejoin: miter"/>
     <use xlink:href="#md5b1f72c10" x="276.450341" y="170.010524" style="fill: #ff00ff; stroke: #000000; stroke-linejoin: miter"/>
     <use xlink:href="#md5b1f72c10" x="384.668523" y="187.423453" style="fill: #ff00ff; stroke: #000000; stroke-linejoin: miter"/>
    </g>
   </g>
   <g id="line2d_22">
    <path d="M 60.013977 150.903856 
L 168.232159 206.629925 
L 276.450341 276.748374 
L 384.668523 287.189674 
" clip-path="url(#pe6796a2314)" style="fill: none; stroke-dasharray: 5.55,2.4; stroke-dashoffset: 0; stroke: #0000ff; stroke-width: 1.5"/>
    <defs>
     <path id="m3160895be9" d="M 0 -3 
L -3 3 
L 3 3 
z
" style="stroke: #000000; stroke-linejoin: miter"/>
    </defs>
    <g clip-path="url(#pe6796a2314)">
     <use xlink:href="#m3160895be9" x="60.013977" y="150.903856" style="fill: #0000ff; stroke: #000000; stroke-linejoin: miter"/>
     <use xlink:href="#m3160895be9" x="168.232159" y="206.629925" style="fill: #0000ff; stroke: #000000; stroke-linejoin: miter"/>
     <use xlink:href="#m3160895be9" x="276.450341" y="276.748374" style="fill: #0000ff; stroke: #000000; stroke-linejoin: miter"/>
     <use xlink:href="#m3160895be9" x="384.668523" y="287.189674" style="fill: #0000ff; stroke: #000000; stroke-linejoin: miter"/>
    </g>
   </g>
   <g id="line2d_23">
    <path d="M 60.013977 51.29306 
L 168.232159 64.224937 
L 276.450341 80.468022 
L 384.668523 77.247672 
" clip-path="url(#pe6796a2314)" style="fill: none; stroke-dasharray: 5.55,2.4; stroke-dashoffset: 0; stroke: #008000; stroke-width: 1.5"/>
    <defs>
     <path id="m41a3683362" d="M 0 -3 
L -3 3 
L 3 3 
z
" style="stroke: #000000; stroke-linejoin: miter"/>
    </defs>
    <g clip-path="url(#pe6796a2314)">
     <use xlink:href="#m41a3683362" x="60.013977" y="51.29306" style="fill: #008000; stroke: #000000; stroke-linejoin: miter"/>
     <use xlink:href="#m41a3683362" x="168.232159" y="64.224937" style="fill: #008000; stroke: #000000; stroke-linejoin: miter"/>
     <use xlink:href="#m41a3683362" x="276.450341" y="80.468022" style="fill: #008000; stroke: #000000; stroke-linejoin: miter"/>
     <use xlink:href="#m41a3683362" x="384.668523" y="77.247672" style="fill: #008000; stroke: #000000; stroke-linejoin: miter"/>
    </g>
   </g>
   <g id="line2d_24">
    <path d="M 60.013977 114.912649 
L 168.232159 185.982454 
L 276.450341 266.642644 
L 384.668523 324.72 
" clip-path="url(#pe6796a2314)" style="fill: none; stroke-dasharray: 5.55,2.4; stroke-dashoffset: 0; stroke: #ffa500; stroke-width: 1.5"/>
    <defs>
     <path id="m9b07fa8ef1" d="M 0 -3 
L -3 3 
L 3 3 
z
" style="stroke: #000000; stroke-linejoin: miter"/>
    </defs>
    <g clip-path="url(#pe6796a2314)">
     <use xlink:href="#m9b07fa8ef1" x="60.013977" y="114.912649" style="fill: #ffa500; stroke: #000000; stroke-linejoin: miter"/>
     <use xlink:href="#m9b07fa8ef1" x="168.232159" y="185.982454" style="fill: #ffa500; stroke: #000000; stroke-linejoin: miter"/>
     <use xlink:href="#m9b07fa8ef1" x="276.450341" y="266.642644" style="fill: #ffa500; stroke: #000000; stroke-linejoin: miter"/>
     <use xlink:href="#m9b07fa8ef1" x="384.668523" y="324.72" style="fill: #ffa500; stroke: #000000; stroke-linejoin: miter"/>
    </g>
   </g>
   <g id="line2d_25">
    <path d="M 60.013977 86.11981 
L 168.232159 86.741258 
L 276.450341 139.629772 
L 384.668523 150.52147 
" clip-path="url(#pe6796a2314)" style="fill: none; stroke-dasharray: 5.55,2.4; stroke-dashoffset: 0; stroke: #00ffff; stroke-width: 1.5"/>
    <defs>
     <path id="m8f31734444" d="M 0 -3 
L -3 3 
L 3 3 
z
" style="stroke: #000000; stroke-linejoin: miter"/>
    </defs>
    <g clip-path="url(#pe6796a2314)">
     <use xlink:href="#m8f31734444" x="60.013977" y="86.11981" style="fill: #00ffff; stroke: #000000; stroke-linejoin: miter"/>
     <use xlink:href="#m8f31734444" x="168.232159" y="86.741258" style="fill: #00ffff; stroke: #000000; stroke-linejoin: miter"/>
     <use xlink:href="#m8f31734444" x="276.450341" y="139.629772" style="fill: #00ffff; stroke: #000000; stroke-linejoin: miter"/>
     <use xlink:href="#m8f31734444" x="384.668523" y="150.52147" style="fill: #00ffff; stroke: #000000; stroke-linejoin: miter"/>
    </g>
   </g>
   <g id="line2d_26">
    <path d="M 60.013977 138.335997 
L 168.232159 189.262043 
L 276.450341 275.010995 
L 384.668523 294.334037 
" clip-path="url(#pe6796a2314)" style="fill: none; stroke-dasharray: 5.55,2.4; stroke-dashoffset: 0; stroke: #ff0000; stroke-width: 1.5"/>
    <defs>
     <path id="mf7ae97ef5c" d="M 0 -3 
L -3 3 
L 3 3 
z
" style="stroke: #000000; stroke-linejoin: miter"/>
    </defs>
    <g clip-path="url(#pe6796a2314)">
     <use xlink:href="#mf7ae97ef5c" x="60.013977" y="138.335997" style="fill: #ff0000; stroke: #000000; stroke-linejoin: miter"/>
     <use xlink:href="#mf7ae97ef5c" x="168.232159" y="189.262043" style="fill: #ff0000; stroke: #000000; stroke-linejoin: miter"/>
     <use xlink:href="#mf7ae97ef5c" x="276.450341" y="275.010995" style="fill: #ff0000; stroke: #000000; stroke-linejoin: miter"/>
     <use xlink:href="#mf7ae97ef5c" x="384.668523" y="294.334037" style="fill: #ff0000; stroke: #000000; stroke-linejoin: miter"/>
    </g>
   </g>
   <g id="line2d_27">
    <path d="M 60.013977 110.885234 
L 168.232159 99.865656 
L 276.450341 145.124008 
L 384.668523 133.505604 
" clip-path="url(#pe6796a2314)" style="fill: none; stroke-dasharray: 5.55,2.4; stroke-dashoffset: 0; stroke: #ff00ff; stroke-width: 1.5"/>
    <defs>
     <path id="m7a6efe43e4" d="M -3 3 
L 3 3 
L 3 -3 
L -3 -3 
z
" style="stroke: #ff00ff; stroke-linejoin: miter"/>
    </defs>
    <g clip-path="url(#pe6796a2314)">
     <use xlink:href="#m7a6efe43e4" x="60.013977" y="110.885234" style="fill: #ff00ff; stroke: #ff00ff; stroke-linejoin: miter"/>
     <use xlink:href="#m7a6efe43e4" x="168.232159" y="99.865656" style="fill: #ff00ff; stroke: #ff00ff; stroke-linejoin: miter"/>
     <use xlink:href="#m7a6efe43e4" x="276.450341" y="145.124008" style="fill: #ff00ff; stroke: #ff00ff; stroke-linejoin: miter"/>
     <use xlink:href="#m7a6efe43e4" x="384.668523" y="133.505604" style="fill: #ff00ff; stroke: #ff00ff; stroke-linejoin: miter"/>
    </g>
   </g>
   <g id="line2d_28">
    <path d="M 60.013977 146.864714 
L 168.232159 185.136758 
L 276.450341 252.363815 
L 384.668523 273.810016 
" clip-path="url(#pe6796a2314)" style="fill: none; stroke-dasharray: 5.55,2.4; stroke-dashoffset: 0; stroke: #0000ff; stroke-width: 1.5"/>
    <defs>
     <path id="m9024be2f12" d="M -3 3 
L 3 3 
L 3 -3 
L -3 -3 
z
" style="stroke: #0000ff; stroke-linejoin: miter"/>
    </defs>
    <g clip-path="url(#pe6796a2314)">
     <use xlink:href="#m9024be2f12" x="60.013977" y="146.864714" style="fill: #0000ff; stroke: #0000ff; stroke-linejoin: miter"/>
     <use xlink:href="#m9024be2f12" x="168.232159" y="185.136758" style="fill: #0000ff; stroke: #0000ff; stroke-linejoin: miter"/>
     <use xlink:href="#m9024be2f12" x="276.450341" y="252.363815" style="fill: #0000ff; stroke: #0000ff; stroke-linejoin: miter"/>
     <use xlink:href="#m9024be2f12" x="384.668523" y="273.810016" style="fill: #0000ff; stroke: #0000ff; stroke-linejoin: miter"/>
    </g>
   </g>
   <g id="line2d_29">
    <path d="M 60.013977 22.32 
L 168.232159 48.17366 
L 276.450341 67.536144 
L 384.668523 84.728172 
" clip-path="url(#pe6796a2314)" style="fill: none; stroke-dasharray: 5.55,2.4; stroke-dashoffset: 0; stroke: #008000; stroke-width: 1.5"/>
    <defs>
     <path id="md401d83100" d="M -3 3 
L 3 3 
L 3 -3 
L -3 -3 
z
" style="stroke: #008000; stroke-linejoin: miter"/>
    </defs>
    <g clip-path="url(#pe6796a2314)">
     <use xlink:href="#md401d83100" x="60.013977" y="22.32" style="fill: #008000; stroke: #008000; stroke-linejoin: miter"/>
     <use xlink:href="#md401d83100" x="168.232159" y="48.17366" style="fill: #008000; stroke: #008000; stroke-linejoin: miter"/>
     <use xlink:href="#md401d83100" x="276.450341" y="67.536144" style="fill: #008000; stroke: #008000; stroke-linejoin: miter"/>
     <use xlink:href="#md401d83100" x="384.668523" y="84.728172" style="fill: #008000; stroke: #008000; stroke-linejoin: miter"/>
    </g>
   </g>
   <g id="line2d_30">
    <path d="M 60.013977 107.331197 
L 168.232159 178.390906 
L 276.450341 249.278998 
L 384.668523 285.995033 
" clip-path="url(#pe6796a2314)" style="fill: none; stroke-dasharray: 5.55,2.4; stroke-dashoffset: 0; stroke: #ffa500; stroke-width: 1.5"/>
    <defs>
     <path id="me76d61e051" d="M -3 3 
L 3 3 
L 3 -3 
L -3 -3 
z
" style="stroke: #ffa500; stroke-linejoin: miter"/>
    </defs>
    <g clip-path="url(#pe6796a2314)">
     <use xlink:href="#me76d61e051" x="60.013977" y="107.331197" style="fill: #ffa500; stroke: #ffa500; stroke-linejoin: miter"/>
     <use xlink:href="#me76d61e051" x="168.232159" y="178.390906" style="fill: #ffa500; stroke: #ffa500; stroke-linejoin: miter"/>
     <use xlink:href="#me76d61e051" x="276.450341" y="249.278998" style="fill: #ffa500; stroke: #ffa500; stroke-linejoin: miter"/>
     <use xlink:href="#me76d61e051" x="384.668523" y="285.995033" style="fill: #ffa500; stroke: #ffa500; stroke-linejoin: miter"/>
    </g>
   </g>
   <g id="line2d_31">
    <path d="M 60.013977 47.382871 
L 168.232159 49.334437 
L 276.450341 84.168245 
L 384.668523 89.96116 
" clip-path="url(#pe6796a2314)" style="fill: none; stroke-dasharray: 5.55,2.4; stroke-dashoffset: 0; stroke: #00ffff; stroke-width: 1.5"/>
    <defs>
     <path id="m44dc77b23c" d="M -3 3 
L 3 3 
L 3 -3 
L -3 -3 
z
" style="stroke: #00ffff; stroke-linejoin: miter"/>
    </defs>
    <g clip-path="url(#pe6796a2314)">
     <use xlink:href="#m44dc77b23c" x="60.013977" y="47.382871" style="fill: #00ffff; stroke: #00ffff; stroke-linejoin: miter"/>
     <use xlink:href="#m44dc77b23c" x="168.232159" y="49.334437" style="fill: #00ffff; stroke: #00ffff; stroke-linejoin: miter"/>
     <use xlink:href="#m44dc77b23c" x="276.450341" y="84.168245" style="fill: #00ffff; stroke: #00ffff; stroke-linejoin: miter"/>
     <use xlink:href="#m44dc77b23c" x="384.668523" y="89.96116" style="fill: #00ffff; stroke: #00ffff; stroke-linejoin: miter"/>
    </g>
   </g>
   <g id="line2d_32">
    <path d="M 60.013977 124.769528 
L 168.232159 151.877027 
L 276.450341 240.122674 
L 384.668523 262.741935 
" clip-path="url(#pe6796a2314)" style="fill: none; stroke-dasharray: 5.55,2.4; stroke-dashoffset: 0; stroke: #ff0000; stroke-width: 1.5"/>
    <defs>
     <path id="mb862a89b38" d="M -3 3 
L 3 3 
L 3 -3 
L -3 -3 
z
" style="stroke: #ff0000; stroke-linejoin: miter"/>
    </defs>
    <g clip-path="url(#pe6796a2314)">
     <use xlink:href="#mb862a89b38" x="60.013977" y="124.769528" style="fill: #ff0000; stroke: #ff0000; stroke-linejoin: miter"/>
     <use xlink:href="#mb862a89b38" x="168.232159" y="151.877027" style="fill: #ff0000; stroke: #ff0000; stroke-linejoin: miter"/>
     <use xlink:href="#mb862a89b38" x="276.450341" y="240.122674" style="fill: #ff0000; stroke: #ff0000; stroke-linejoin: miter"/>
     <use xlink:href="#mb862a89b38" x="384.668523" y="262.741935" style="fill: #ff0000; stroke: #ff0000; stroke-linejoin: miter"/>
    </g>
   </g>
   <g id="patch_3">
    <path d="M 43.78125 339.84 
L 43.78125 7.2 
" style="fill: none; stroke: #000000; stroke-width: 0.8; stroke-linejoin: miter; stroke-linecap: square"/>
   </g>
   <g id="patch_4">
    <path d="M 400.90125 339.84 
L 400.90125 7.2 
" style="fill: none; stroke: #000000; stroke-width: 0.8; stroke-linejoin: miter; stroke-linecap: square"/>
   </g>
   <g id="patch_5">
    <path d="M 43.78125 339.84 
L 400.90125 339.84 
" style="fill: none; stroke: #000000; stroke-width: 0.8; stroke-linejoin: miter; stroke-linecap: square"/>
   </g>
   <g id="patch_6">
    <path d="M 43.78125 7.2 
L 400.90125 7.2 
" style="fill: none; stroke: #000000; stroke-width: 0.8; stroke-linejoin: miter; stroke-linecap: square"/>
   </g>
   <g id="legend_1">
    <g id="patch_7">
     <path d="M 407.90125 263.08875 
L 582.66375 263.08875 
Q 584.66375 263.08875 584.66375 261.08875 
L 584.66375 85.95125 
Q 584.66375 83.95125 582.66375 83.95125 
L 407.90125 83.95125 
Q 405.90125 83.95125 405.90125 85.95125 
L 405.90125 261.08875 
Q 405.90125 263.08875 407.90125 263.08875 
z
" style="fill: #ffffff; fill-opacity: 0.01; stroke: #000000; stroke-linejoin: miter"/>
    </g>
    <g id="line2d_33">
     <path d="M 409.90125 92.049688 
L 419.90125 92.049688 
L 429.90125 92.049688 
" style="fill: none; stroke-dasharray: 5.55,2.4; stroke-dashoffset: 0; stroke: #ff00ff; stroke-width: 1.5"/>
     <g>
      <use xlink:href="#md5b1f72c10" x="419.90125" y="92.049688" style="fill: #ff00ff; stroke: #000000; stroke-linejoin: miter"/>
     </g>
    </g>
    <g id="text_13">
     <!-- FCM B2B + OSNR -->
     <g transform="translate(437.90125 95.549688) scale(0.1 -0.1)">
      <defs>
       <path id="DejaVuSans-46" d="M 628 4666 
L 3309 4666 
L 3309 4134 
L 1259 4134 
L 1259 2759 
L 3109 2759 
L 3109 2228 
L 1259 2228 
L 1259 0 
L 628 0 
L 628 4666 
z
" transform="scale(0.015625)"/>
       <path id="DejaVuSans-43" d="M 4122 4306 
L 4122 3641 
Q 3803 3938 3442 4084 
Q 3081 4231 2675 4231 
Q 1875 4231 1450 3742 
Q 1025 3253 1025 2328 
Q 1025 1406 1450 917 
Q 1875 428 2675 428 
Q 3081 428 3442 575 
Q 3803 722 4122 1019 
L 4122 359 
Q 3791 134 3420 21 
Q 3050 -91 2638 -91 
Q 1578 -91 968 557 
Q 359 1206 359 2328 
Q 359 3453 968 4101 
Q 1578 4750 2638 4750 
Q 3056 4750 3426 4639 
Q 3797 4528 4122 4306 
z
" transform="scale(0.015625)"/>
       <path id="DejaVuSans-4d" d="M 628 4666 
L 1569 4666 
L 2759 1491 
L 3956 4666 
L 4897 4666 
L 4897 0 
L 4281 0 
L 4281 4097 
L 3078 897 
L 2444 897 
L 1241 4097 
L 1241 0 
L 628 0 
L 628 4666 
z
" transform="scale(0.015625)"/>
       <path id="DejaVuSans-42" d="M 1259 2228 
L 1259 519 
L 2272 519 
Q 2781 519 3026 730 
Q 3272 941 3272 1375 
Q 3272 1813 3026 2020 
Q 2781 2228 2272 2228 
L 1259 2228 
z
M 1259 4147 
L 1259 2741 
L 2194 2741 
Q 2656 2741 2882 2914 
Q 3109 3088 3109 3444 
Q 3109 3797 2882 3972 
Q 2656 4147 2194 4147 
L 1259 4147 
z
M 628 4666 
L 2241 4666 
Q 2963 4666 3353 4366 
Q 3744 4066 3744 3513 
Q 3744 3084 3544 2831 
Q 3344 2578 2956 2516 
Q 3422 2416 3680 2098 
Q 3938 1781 3938 1306 
Q 3938 681 3513 340 
Q 3088 0 2303 0 
L 628 0 
L 628 4666 
z
" transform="scale(0.015625)"/>
       <path id="DejaVuSans-2b" d="M 2944 4013 
L 2944 2272 
L 4684 2272 
L 4684 1741 
L 2944 1741 
L 2944 0 
L 2419 0 
L 2419 1741 
L 678 1741 
L 678 2272 
L 2419 2272 
L 2419 4013 
L 2944 4013 
z
" transform="scale(0.015625)"/>
       <path id="DejaVuSans-4f" d="M 2522 4238 
Q 1834 4238 1429 3725 
Q 1025 3213 1025 2328 
Q 1025 1447 1429 934 
Q 1834 422 2522 422 
Q 3209 422 3611 934 
Q 4013 1447 4013 2328 
Q 4013 3213 3611 3725 
Q 3209 4238 2522 4238 
z
M 2522 4750 
Q 3503 4750 4090 4092 
Q 4678 3434 4678 2328 
Q 4678 1225 4090 567 
Q 3503 -91 2522 -91 
Q 1538 -91 948 565 
Q 359 1222 359 2328 
Q 359 3434 948 4092 
Q 1538 4750 2522 4750 
z
" transform="scale(0.015625)"/>
       <path id="DejaVuSans-53" d="M 3425 4513 
L 3425 3897 
Q 3066 4069 2747 4153 
Q 2428 4238 2131 4238 
Q 1616 4238 1336 4038 
Q 1056 3838 1056 3469 
Q 1056 3159 1242 3001 
Q 1428 2844 1947 2747 
L 2328 2669 
Q 3034 2534 3370 2195 
Q 3706 1856 3706 1288 
Q 3706 609 3251 259 
Q 2797 -91 1919 -91 
Q 1588 -91 1214 -16 
Q 841 59 441 206 
L 441 856 
Q 825 641 1194 531 
Q 1563 422 1919 422 
Q 2459 422 2753 634 
Q 3047 847 3047 1241 
Q 3047 1584 2836 1778 
Q 2625 1972 2144 2069 
L 1759 2144 
Q 1053 2284 737 2584 
Q 422 2884 422 3419 
Q 422 4038 858 4394 
Q 1294 4750 2059 4750 
Q 2388 4750 2728 4690 
Q 3069 4631 3425 4513 
z
" transform="scale(0.015625)"/>
       <path id="DejaVuSans-52" d="M 2841 2188 
Q 3044 2119 3236 1894 
Q 3428 1669 3622 1275 
L 4263 0 
L 3584 0 
L 2988 1197 
Q 2756 1666 2539 1819 
Q 2322 1972 1947 1972 
L 1259 1972 
L 1259 0 
L 628 0 
L 628 4666 
L 2053 4666 
Q 2853 4666 3247 4331 
Q 3641 3997 3641 3322 
Q 3641 2881 3436 2590 
Q 3231 2300 2841 2188 
z
M 1259 4147 
L 1259 2491 
L 2053 2491 
Q 2509 2491 2742 2702 
Q 2975 2913 2975 3322 
Q 2975 3731 2742 3939 
Q 2509 4147 2053 4147 
L 1259 4147 
z
" transform="scale(0.015625)"/>
      </defs>
      <use xlink:href="#DejaVuSans-46"/>
      <use xlink:href="#DejaVuSans-43" x="57.519531"/>
      <use xlink:href="#DejaVuSans-4d" x="127.34375"/>
      <use xlink:href="#DejaVuSans-20" x="213.623047"/>
      <use xlink:href="#DejaVuSans-42" x="245.410156"/>
      <use xlink:href="#DejaVuSans-32" x="314.013672"/>
      <use xlink:href="#DejaVuSans-42" x="377.636719"/>
      <use xlink:href="#DejaVuSans-20" x="446.240234"/>
      <use xlink:href="#DejaVuSans-2b" x="478.027344"/>
      <use xlink:href="#DejaVuSans-20" x="561.816406"/>
      <use xlink:href="#DejaVuSans-4f" x="593.603516"/>
      <use xlink:href="#DejaVuSans-53" x="672.314453"/>
      <use xlink:href="#DejaVuSans-4e" x="735.791016"/>
      <use xlink:href="#DejaVuSans-52" x="810.595703"/>
     </g>
    </g>
    <g id="line2d_34">
     <path d="M 409.90125 106.727813 
L 419.90125 106.727813 
L 429.90125 106.727813 
" style="fill: none; stroke-dasharray: 5.55,2.4; stroke-dashoffset: 0; stroke: #0000ff; stroke-width: 1.5"/>
     <g>
      <use xlink:href="#m3160895be9" x="419.90125" y="106.727813" style="fill: #0000ff; stroke: #000000; stroke-linejoin: miter"/>
     </g>
    </g>
    <g id="text_14">
     <!-- FCM B2B  -->
     <g transform="translate(437.90125 110.227813) scale(0.1 -0.1)">
      <use xlink:href="#DejaVuSans-46"/>
      <use xlink:href="#DejaVuSans-43" x="57.519531"/>
      <use xlink:href="#DejaVuSans-4d" x="127.34375"/>
      <use xlink:href="#DejaVuSans-20" x="213.623047"/>
      <use xlink:href="#DejaVuSans-42" x="245.410156"/>
      <use xlink:href="#DejaVuSans-32" x="314.013672"/>
      <use xlink:href="#DejaVuSans-42" x="377.636719"/>
      <use xlink:href="#DejaVuSans-20" x="446.240234"/>
     </g>
    </g>
    <g id="line2d_35">
     <path d="M 409.90125 121.405938 
L 419.90125 121.405938 
L 429.90125 121.405938 
" style="fill: none; stroke-dasharray: 5.55,2.4; stroke-dashoffset: 0; stroke: #008000; stroke-width: 1.5"/>
     <g>
      <use xlink:href="#m41a3683362" x="419.90125" y="121.405938" style="fill: #008000; stroke: #000000; stroke-linejoin: miter"/>
     </g>
    </g>
    <g id="text_15">
     <!-- FCM Fiber @ 0 dBm + OSNR -->
     <g transform="translate(437.90125 124.905938) scale(0.1 -0.1)">
      <defs>
       <path id="DejaVuSans-69" d="M 603 3500 
L 1178 3500 
L 1178 0 
L 603 0 
L 603 3500 
z
M 603 4863 
L 1178 4863 
L 1178 4134 
L 603 4134 
L 603 4863 
z
" transform="scale(0.015625)"/>
       <path id="DejaVuSans-40" d="M 2381 1678 
Q 2381 1231 2603 976 
Q 2825 722 3213 722 
Q 3597 722 3817 978 
Q 4038 1234 4038 1678 
Q 4038 2116 3813 2373 
Q 3588 2631 3206 2631 
Q 2828 2631 2604 2375 
Q 2381 2119 2381 1678 
z
M 4084 744 
Q 3897 503 3655 389 
Q 3413 275 3091 275 
Q 2553 275 2217 664 
Q 1881 1053 1881 1678 
Q 1881 2303 2218 2693 
Q 2556 3084 3091 3084 
Q 3413 3084 3656 2967 
Q 3900 2850 4084 2613 
L 4084 3022 
L 4531 3022 
L 4531 722 
Q 4988 791 5245 1139 
Q 5503 1488 5503 2041 
Q 5503 2375 5404 2669 
Q 5306 2963 5106 3213 
Q 4781 3622 4314 3839 
Q 3847 4056 3297 4056 
Q 2913 4056 2559 3954 
Q 2206 3853 1906 3653 
Q 1416 3334 1139 2817 
Q 863 2300 863 1697 
Q 863 1200 1042 765 
Q 1222 331 1563 0 
Q 1891 -325 2322 -495 
Q 2753 -666 3244 -666 
Q 3647 -666 4036 -530 
Q 4425 -394 4750 -141 
L 5031 -488 
Q 4641 -791 4180 -952 
Q 3719 -1113 3244 -1113 
Q 2666 -1113 2153 -908 
Q 1641 -703 1241 -313 
Q 841 78 631 592 
Q 422 1106 422 1697 
Q 422 2266 634 2781 
Q 847 3297 1241 3688 
Q 1644 4084 2172 4295 
Q 2700 4506 3291 4506 
Q 3953 4506 4520 4234 
Q 5088 3963 5472 3463 
Q 5706 3156 5829 2797 
Q 5953 2438 5953 2053 
Q 5953 1231 5456 756 
Q 4959 281 4084 263 
L 4084 744 
z
" transform="scale(0.015625)"/>
       <path id="DejaVuSans-64" d="M 2906 2969 
L 2906 4863 
L 3481 4863 
L 3481 0 
L 2906 0 
L 2906 525 
Q 2725 213 2448 61 
Q 2172 -91 1784 -91 
Q 1150 -91 751 415 
Q 353 922 353 1747 
Q 353 2572 751 3078 
Q 1150 3584 1784 3584 
Q 2172 3584 2448 3432 
Q 2725 3281 2906 2969 
z
M 947 1747 
Q 947 1113 1208 752 
Q 1469 391 1925 391 
Q 2381 391 2643 752 
Q 2906 1113 2906 1747 
Q 2906 2381 2643 2742 
Q 2381 3103 1925 3103 
Q 1469 3103 1208 2742 
Q 947 2381 947 1747 
z
" transform="scale(0.015625)"/>
      </defs>
      <use xlink:href="#DejaVuSans-46"/>
      <use xlink:href="#DejaVuSans-43" x="57.519531"/>
      <use xlink:href="#DejaVuSans-4d" x="127.34375"/>
      <use xlink:href="#DejaVuSans-20" x="213.623047"/>
      <use xlink:href="#DejaVuSans-46" x="245.410156"/>
      <use xlink:href="#DejaVuSans-69" x="295.679688"/>
      <use xlink:href="#DejaVuSans-62" x="323.462891"/>
      <use xlink:href="#DejaVuSans-65" x="386.939453"/>
      <use xlink:href="#DejaVuSans-72" x="448.462891"/>
      <use xlink:href="#DejaVuSans-20" x="489.576172"/>
      <use xlink:href="#DejaVuSans-40" x="521.363281"/>
      <use xlink:href="#DejaVuSans-20" x="621.363281"/>
      <use xlink:href="#DejaVuSans-30" x="653.150391"/>
      <use xlink:href="#DejaVuSans-20" x="716.773438"/>
      <use xlink:href="#DejaVuSans-64" x="748.560547"/>
      <use xlink:href="#DejaVuSans-42" x="812.037109"/>
      <use xlink:href="#DejaVuSans-6d" x="880.640625"/>
      <use xlink:href="#DejaVuSans-20" x="978.052734"/>
      <use xlink:href="#DejaVuSans-2b" x="1009.839844"/>
      <use xlink:href="#DejaVuSans-20" x="1093.628906"/>
      <use xlink:href="#DejaVuSans-4f" x="1125.416016"/>
      <use xlink:href="#DejaVuSans-53" x="1204.126953"/>
      <use xlink:href="#DejaVuSans-4e" x="1267.603516"/>
      <use xlink:href="#DejaVuSans-52" x="1342.408203"/>
     </g>
    </g>
    <g id="line2d_36">
     <path d="M 409.90125 136.084063 
L 419.90125 136.084063 
L 429.90125 136.084063 
" style="fill: none; stroke-dasharray: 5.55,2.4; stroke-dashoffset: 0; stroke: #ffa500; stroke-width: 1.5"/>
     <g>
      <use xlink:href="#m9b07fa8ef1" x="419.90125" y="136.084063" style="fill: #ffa500; stroke: #000000; stroke-linejoin: miter"/>
     </g>
    </g>
    <g id="text_16">
     <!-- FCM Fiber @ 0 dBm  -->
     <g transform="translate(437.90125 139.584063) scale(0.1 -0.1)">
      <use xlink:href="#DejaVuSans-46"/>
      <use xlink:href="#DejaVuSans-43" x="57.519531"/>
      <use xlink:href="#DejaVuSans-4d" x="127.34375"/>
      <use xlink:href="#DejaVuSans-20" x="213.623047"/>
      <use xlink:href="#DejaVuSans-46" x="245.410156"/>
      <use xlink:href="#DejaVuSans-69" x="295.679688"/>
      <use xlink:href="#DejaVuSans-62" x="323.462891"/>
      <use xlink:href="#DejaVuSans-65" x="386.939453"/>
      <use xlink:href="#DejaVuSans-72" x="448.462891"/>
      <use xlink:href="#DejaVuSans-20" x="489.576172"/>
      <use xlink:href="#DejaVuSans-40" x="521.363281"/>
      <use xlink:href="#DejaVuSans-20" x="621.363281"/>
      <use xlink:href="#DejaVuSans-30" x="653.150391"/>
      <use xlink:href="#DejaVuSans-20" x="716.773438"/>
      <use xlink:href="#DejaVuSans-64" x="748.560547"/>
      <use xlink:href="#DejaVuSans-42" x="812.037109"/>
      <use xlink:href="#DejaVuSans-6d" x="880.640625"/>
      <use xlink:href="#DejaVuSans-20" x="978.052734"/>
     </g>
    </g>
    <g id="line2d_37">
     <path d="M 409.90125 150.762188 
L 419.90125 150.762188 
L 429.90125 150.762188 
" style="fill: none; stroke-dasharray: 5.55,2.4; stroke-dashoffset: 0; stroke: #00ffff; stroke-width: 1.5"/>
     <g>
      <use xlink:href="#m8f31734444" x="419.90125" y="150.762188" style="fill: #00ffff; stroke: #000000; stroke-linejoin: miter"/>
     </g>
    </g>
    <g id="text_17">
     <!-- FCM Fiber @ 9 dBm + OSNR -->
     <g transform="translate(437.90125 154.262188) scale(0.1 -0.1)">
      <use xlink:href="#DejaVuSans-46"/>
      <use xlink:href="#DejaVuSans-43" x="57.519531"/>
      <use xlink:href="#DejaVuSans-4d" x="127.34375"/>
      <use xlink:href="#DejaVuSans-20" x="213.623047"/>
      <use xlink:href="#DejaVuSans-46" x="245.410156"/>
      <use xlink:href="#DejaVuSans-69" x="295.679688"/>
      <use xlink:href="#DejaVuSans-62" x="323.462891"/>
      <use xlink:href="#DejaVuSans-65" x="386.939453"/>
      <use xlink:href="#DejaVuSans-72" x="448.462891"/>
      <use xlink:href="#DejaVuSans-20" x="489.576172"/>
      <use xlink:href="#DejaVuSans-40" x="521.363281"/>
      <use xlink:href="#DejaVuSans-20" x="621.363281"/>
      <use xlink:href="#DejaVuSans-39" x="653.150391"/>
      <use xlink:href="#DejaVuSans-20" x="716.773438"/>
      <use xlink:href="#DejaVuSans-64" x="748.560547"/>
      <use xlink:href="#DejaVuSans-42" x="812.037109"/>
      <use xlink:href="#DejaVuSans-6d" x="880.640625"/>
      <use xlink:href="#DejaVuSans-20" x="978.052734"/>
      <use xlink:href="#DejaVuSans-2b" x="1009.839844"/>
      <use xlink:href="#DejaVuSans-20" x="1093.628906"/>
      <use xlink:href="#DejaVuSans-4f" x="1125.416016"/>
      <use xlink:href="#DejaVuSans-53" x="1204.126953"/>
      <use xlink:href="#DejaVuSans-4e" x="1267.603516"/>
      <use xlink:href="#DejaVuSans-52" x="1342.408203"/>
     </g>
    </g>
    <g id="line2d_38">
     <path d="M 409.90125 165.440313 
L 419.90125 165.440313 
L 429.90125 165.440313 
" style="fill: none; stroke-dasharray: 5.55,2.4; stroke-dashoffset: 0; stroke: #ff0000; stroke-width: 1.5"/>
     <g>
      <use xlink:href="#mf7ae97ef5c" x="419.90125" y="165.440313" style="fill: #ff0000; stroke: #000000; stroke-linejoin: miter"/>
     </g>
    </g>
    <g id="text_18">
     <!-- FCM Fiber @ 9 dBm  -->
     <g transform="translate(437.90125 168.940313) scale(0.1 -0.1)">
      <use xlink:href="#DejaVuSans-46"/>
      <use xlink:href="#DejaVuSans-43" x="57.519531"/>
      <use xlink:href="#DejaVuSans-4d" x="127.34375"/>
      <use xlink:href="#DejaVuSans-20" x="213.623047"/>
      <use xlink:href="#DejaVuSans-46" x="245.410156"/>
      <use xlink:href="#DejaVuSans-69" x="295.679688"/>
      <use xlink:href="#DejaVuSans-62" x="323.462891"/>
      <use xlink:href="#DejaVuSans-65" x="386.939453"/>
      <use xlink:href="#DejaVuSans-72" x="448.462891"/>
      <use xlink:href="#DejaVuSans-20" x="489.576172"/>
      <use xlink:href="#DejaVuSans-40" x="521.363281"/>
      <use xlink:href="#DejaVuSans-20" x="621.363281"/>
      <use xlink:href="#DejaVuSans-39" x="653.150391"/>
      <use xlink:href="#DejaVuSans-20" x="716.773438"/>
      <use xlink:href="#DejaVuSans-64" x="748.560547"/>
      <use xlink:href="#DejaVuSans-42" x="812.037109"/>
      <use xlink:href="#DejaVuSans-6d" x="880.640625"/>
      <use xlink:href="#DejaVuSans-20" x="978.052734"/>
     </g>
    </g>
    <g id="line2d_39">
     <path d="M 409.90125 180.118438 
L 419.90125 180.118438 
L 429.90125 180.118438 
" style="fill: none; stroke-dasharray: 5.55,2.4; stroke-dashoffset: 0; stroke: #ff00ff; stroke-width: 1.5"/>
     <g>
      <use xlink:href="#m7a6efe43e4" x="419.90125" y="180.118438" style="fill: #ff00ff; stroke: #ff00ff; stroke-linejoin: miter"/>
     </g>
    </g>
    <g id="text_19">
     <!-- GKM B2B + OSNR -->
     <g transform="translate(437.90125 183.618438) scale(0.1 -0.1)">
      <defs>
       <path id="DejaVuSans-47" d="M 3809 666 
L 3809 1919 
L 2778 1919 
L 2778 2438 
L 4434 2438 
L 4434 434 
Q 4069 175 3628 42 
Q 3188 -91 2688 -91 
Q 1594 -91 976 548 
Q 359 1188 359 2328 
Q 359 3472 976 4111 
Q 1594 4750 2688 4750 
Q 3144 4750 3555 4637 
Q 3966 4525 4313 4306 
L 4313 3634 
Q 3963 3931 3569 4081 
Q 3175 4231 2741 4231 
Q 1884 4231 1454 3753 
Q 1025 3275 1025 2328 
Q 1025 1384 1454 906 
Q 1884 428 2741 428 
Q 3075 428 3337 486 
Q 3600 544 3809 666 
z
" transform="scale(0.015625)"/>
       <path id="DejaVuSans-4b" d="M 628 4666 
L 1259 4666 
L 1259 2694 
L 3353 4666 
L 4166 4666 
L 1850 2491 
L 4331 0 
L 3500 0 
L 1259 2247 
L 1259 0 
L 628 0 
L 628 4666 
z
" transform="scale(0.015625)"/>
      </defs>
      <use xlink:href="#DejaVuSans-47"/>
      <use xlink:href="#DejaVuSans-4b" x="77.490234"/>
      <use xlink:href="#DejaVuSans-4d" x="143.066406"/>
      <use xlink:href="#DejaVuSans-20" x="229.345703"/>
      <use xlink:href="#DejaVuSans-42" x="261.132812"/>
      <use xlink:href="#DejaVuSans-32" x="329.736328"/>
      <use xlink:href="#DejaVuSans-42" x="393.359375"/>
      <use xlink:href="#DejaVuSans-20" x="461.962891"/>
      <use xlink:href="#DejaVuSans-2b" x="493.75"/>
      <use xlink:href="#DejaVuSans-20" x="577.539062"/>
      <use xlink:href="#DejaVuSans-4f" x="609.326172"/>
      <use xlink:href="#DejaVuSans-53" x="688.037109"/>
      <use xlink:href="#DejaVuSans-4e" x="751.513672"/>
      <use xlink:href="#DejaVuSans-52" x="826.318359"/>
     </g>
    </g>
    <g id="line2d_40">
     <path d="M 409.90125 194.796562 
L 419.90125 194.796562 
L 429.90125 194.796562 
" style="fill: none; stroke-dasharray: 5.55,2.4; stroke-dashoffset: 0; stroke: #0000ff; stroke-width: 1.5"/>
     <g>
      <use xlink:href="#m9024be2f12" x="419.90125" y="194.796562" style="fill: #0000ff; stroke: #0000ff; stroke-linejoin: miter"/>
     </g>
    </g>
    <g id="text_20">
     <!-- GKM B2B  -->
     <g transform="translate(437.90125 198.296562) scale(0.1 -0.1)">
      <use xlink:href="#DejaVuSans-47"/>
      <use xlink:href="#DejaVuSans-4b" x="77.490234"/>
      <use xlink:href="#DejaVuSans-4d" x="143.066406"/>
      <use xlink:href="#DejaVuSans-20" x="229.345703"/>
      <use xlink:href="#DejaVuSans-42" x="261.132812"/>
      <use xlink:href="#DejaVuSans-32" x="329.736328"/>
      <use xlink:href="#DejaVuSans-42" x="393.359375"/>
      <use xlink:href="#DejaVuSans-20" x="461.962891"/>
     </g>
    </g>
    <g id="line2d_41">
     <path d="M 409.90125 209.474688 
L 419.90125 209.474688 
L 429.90125 209.474688 
" style="fill: none; stroke-dasharray: 5.55,2.4; stroke-dashoffset: 0; stroke: #008000; stroke-width: 1.5"/>
     <g>
      <use xlink:href="#md401d83100" x="419.90125" y="209.474688" style="fill: #008000; stroke: #008000; stroke-linejoin: miter"/>
     </g>
    </g>
    <g id="text_21">
     <!-- GKM Fiber @ 0 dBm + OSNR -->
     <g transform="translate(437.90125 212.974688) scale(0.1 -0.1)">
      <use xlink:href="#DejaVuSans-47"/>
      <use xlink:href="#DejaVuSans-4b" x="77.490234"/>
      <use xlink:href="#DejaVuSans-4d" x="143.066406"/>
      <use xlink:href="#DejaVuSans-20" x="229.345703"/>
      <use xlink:href="#DejaVuSans-46" x="261.132812"/>
      <use xlink:href="#DejaVuSans-69" x="311.402344"/>
      <use xlink:href="#DejaVuSans-62" x="339.185547"/>
      <use xlink:href="#DejaVuSans-65" x="402.662109"/>
      <use xlink:href="#DejaVuSans-72" x="464.185547"/>
      <use xlink:href="#DejaVuSans-20" x="505.298828"/>
      <use xlink:href="#DejaVuSans-40" x="537.085938"/>
      <use xlink:href="#DejaVuSans-20" x="637.085938"/>
      <use xlink:href="#DejaVuSans-30" x="668.873047"/>
      <use xlink:href="#DejaVuSans-20" x="732.496094"/>
      <use xlink:href="#DejaVuSans-64" x="764.283203"/>
      <use xlink:href="#DejaVuSans-42" x="827.759766"/>
      <use xlink:href="#DejaVuSans-6d" x="896.363281"/>
      <use xlink:href="#DejaVuSans-20" x="993.775391"/>
      <use xlink:href="#DejaVuSans-2b" x="1025.5625"/>
      <use xlink:href="#DejaVuSans-20" x="1109.351562"/>
      <use xlink:href="#DejaVuSans-4f" x="1141.138672"/>
      <use xlink:href="#DejaVuSans-53" x="1219.849609"/>
      <use xlink:href="#DejaVuSans-4e" x="1283.326172"/>
      <use xlink:href="#DejaVuSans-52" x="1358.130859"/>
     </g>
    </g>
    <g id="line2d_42">
     <path d="M 409.90125 224.152812 
L 419.90125 224.152812 
L 429.90125 224.152812 
" style="fill: none; stroke-dasharray: 5.55,2.4; stroke-dashoffset: 0; stroke: #ffa500; stroke-width: 1.5"/>
     <g>
      <use xlink:href="#me76d61e051" x="419.90125" y="224.152812" style="fill: #ffa500; stroke: #ffa500; stroke-linejoin: miter"/>
     </g>
    </g>
    <g id="text_22">
     <!-- GKM Fiber @ 0 dBm  -->
     <g transform="translate(437.90125 227.652812) scale(0.1 -0.1)">
      <use xlink:href="#DejaVuSans-47"/>
      <use xlink:href="#DejaVuSans-4b" x="77.490234"/>
      <use xlink:href="#DejaVuSans-4d" x="143.066406"/>
      <use xlink:href="#DejaVuSans-20" x="229.345703"/>
      <use xlink:href="#DejaVuSans-46" x="261.132812"/>
      <use xlink:href="#DejaVuSans-69" x="311.402344"/>
      <use xlink:href="#DejaVuSans-62" x="339.185547"/>
      <use xlink:href="#DejaVuSans-65" x="402.662109"/>
      <use xlink:href="#DejaVuSans-72" x="464.185547"/>
      <use xlink:href="#DejaVuSans-20" x="505.298828"/>
      <use xlink:href="#DejaVuSans-40" x="537.085938"/>
      <use xlink:href="#DejaVuSans-20" x="637.085938"/>
      <use xlink:href="#DejaVuSans-30" x="668.873047"/>
      <use xlink:href="#DejaVuSans-20" x="732.496094"/>
      <use xlink:href="#DejaVuSans-64" x="764.283203"/>
      <use xlink:href="#DejaVuSans-42" x="827.759766"/>
      <use xlink:href="#DejaVuSans-6d" x="896.363281"/>
      <use xlink:href="#DejaVuSans-20" x="993.775391"/>
     </g>
    </g>
    <g id="line2d_43">
     <path d="M 409.90125 238.830937 
L 419.90125 238.830937 
L 429.90125 238.830937 
" style="fill: none; stroke-dasharray: 5.55,2.4; stroke-dashoffset: 0; stroke: #00ffff; stroke-width: 1.5"/>
     <g>
      <use xlink:href="#m44dc77b23c" x="419.90125" y="238.830937" style="fill: #00ffff; stroke: #00ffff; stroke-linejoin: miter"/>
     </g>
    </g>
    <g id="text_23">
     <!-- GKM Fiber @ 9 dBm + OSNR -->
     <g transform="translate(437.90125 242.330937) scale(0.1 -0.1)">
      <use xlink:href="#DejaVuSans-47"/>
      <use xlink:href="#DejaVuSans-4b" x="77.490234"/>
      <use xlink:href="#DejaVuSans-4d" x="143.066406"/>
      <use xlink:href="#DejaVuSans-20" x="229.345703"/>
      <use xlink:href="#DejaVuSans-46" x="261.132812"/>
      <use xlink:href="#DejaVuSans-69" x="311.402344"/>
      <use xlink:href="#DejaVuSans-62" x="339.185547"/>
      <use xlink:href="#DejaVuSans-65" x="402.662109"/>
      <use xlink:href="#DejaVuSans-72" x="464.185547"/>
      <use xlink:href="#DejaVuSans-20" x="505.298828"/>
      <use xlink:href="#DejaVuSans-40" x="537.085938"/>
      <use xlink:href="#DejaVuSans-20" x="637.085938"/>
      <use xlink:href="#DejaVuSans-39" x="668.873047"/>
      <use xlink:href="#DejaVuSans-20" x="732.496094"/>
      <use xlink:href="#DejaVuSans-64" x="764.283203"/>
      <use xlink:href="#DejaVuSans-42" x="827.759766"/>
      <use xlink:href="#DejaVuSans-6d" x="896.363281"/>
      <use xlink:href="#DejaVuSans-20" x="993.775391"/>
      <use xlink:href="#DejaVuSans-2b" x="1025.5625"/>
      <use xlink:href="#DejaVuSans-20" x="1109.351562"/>
      <use xlink:href="#DejaVuSans-4f" x="1141.138672"/>
      <use xlink:href="#DejaVuSans-53" x="1219.849609"/>
      <use xlink:href="#DejaVuSans-4e" x="1283.326172"/>
      <use xlink:href="#DejaVuSans-52" x="1358.130859"/>
     </g>
    </g>
    <g id="line2d_44">
     <path d="M 409.90125 253.509062 
L 419.90125 253.509062 
L 429.90125 253.509062 
" style="fill: none; stroke-dasharray: 5.55,2.4; stroke-dashoffset: 0; stroke: #ff0000; stroke-width: 1.5"/>
     <g>
      <use xlink:href="#mb862a89b38" x="419.90125" y="253.509062" style="fill: #ff0000; stroke: #ff0000; stroke-linejoin: miter"/>
     </g>
    </g>
    <g id="text_24">
     <!-- GKM Fiber @ 9 dBm  -->
     <g transform="translate(437.90125 257.009062) scale(0.1 -0.1)">
      <use xlink:href="#DejaVuSans-47"/>
      <use xlink:href="#DejaVuSans-4b" x="77.490234"/>
      <use xlink:href="#DejaVuSans-4d" x="143.066406"/>
      <use xlink:href="#DejaVuSans-20" x="229.345703"/>
      <use xlink:href="#DejaVuSans-46" x="261.132812"/>
      <use xlink:href="#DejaVuSans-69" x="311.402344"/>
      <use xlink:href="#DejaVuSans-62" x="339.185547"/>
      <use xlink:href="#DejaVuSans-65" x="402.662109"/>
      <use xlink:href="#DejaVuSans-72" x="464.185547"/>
      <use xlink:href="#DejaVuSans-20" x="505.298828"/>
      <use xlink:href="#DejaVuSans-40" x="537.085938"/>
      <use xlink:href="#DejaVuSans-20" x="637.085938"/>
      <use xlink:href="#DejaVuSans-39" x="668.873047"/>
      <use xlink:href="#DejaVuSans-20" x="732.496094"/>
      <use xlink:href="#DejaVuSans-64" x="764.283203"/>
      <use xlink:href="#DejaVuSans-42" x="827.759766"/>
      <use xlink:href="#DejaVuSans-6d" x="896.363281"/>
      <use xlink:href="#DejaVuSans-20" x="993.775391"/>
     </g>
    </g>
   </g>
  </g>
 </g>
 <defs>
  <clipPath id="pe6796a2314">
   <rect x="43.78125" y="7.2" width="357.12" height="332.64"/>
  </clipPath>
 </defs>
</svg>
